<svg width="1500" height="850" viewBox="0 0 1500 850" fill="none" xmlns="http://www.w3.org/2000/svg">
<g clip-path="url(#clip0_0_1)">
<path d="M979 851C652.667 851 326.833 851 1 851C1 567.667 1 284.333 1 1C501 1 1001 1 1501 1C1501 284.333 1501 567.667 1501 851C1327.17 851 1153.33 851 979 851ZM351.554 556.929C371.416 548.385 390.959 538.954 411.26 531.624C423.746 527.116 432.88 519.63 440.563 509.58C444.095 504.96 446.961 499.83 450.516 495.23C452.079 493.207 454.387 491.001 456.728 490.449C494.296 481.577 531.913 472.914 569.566 464.407C571.646 463.937 574.333 464.812 576.388 465.794C587.008 470.863 597.441 476.328 608.114 481.277C610.496 482.382 613.608 482.371 616.337 482.184C625.536 481.552 634.715 480.61 645.115 479.677C635.508 498.109 628.114 516.004 625.842 536.363C619.947 536.363 614.408 536.363 608.869 536.363C616.401 539.405 744.207 538.811 747.871 535.865C742.694 535.865 738.376 535.865 734.115 535.865C734.115 534.818 734.005 534.443 734.13 534.18C742.419 516.751 750.656 499.296 759.171 481.978C759.834 480.63 762.509 479.415 764.15 479.53C823.651 483.706 882.004 494.292 939.28 510.965C943.436 512.175 948.289 512.436 952.524 511.617C960.147 510.144 967.508 507.357 975.064 505.462C977.582 504.83 980.687 504.418 982.973 505.313C1003.88 513.502 1024.56 522.287 1045.55 530.257C1052.99 533.079 1058.68 536.474 1060.78 544.686C1061.58 547.806 1063.78 550.596 1065.48 553.453C1069.47 560.165 1074.96 564.86 1082 568.71C1104.92 581.233 1127.5 594.394 1149.98 607.696C1159.43 613.283 1168.28 619.869 1177.45 625.912C1178.53 626.622 1179.98 626.769 1181.26 627.177C1181.44 626.655 1181.61 626.133 1181.79 625.611C1180.76 624.85 1179.76 624.062 1178.71 623.332C1148.75 602.456 1117.73 583.288 1085.02 567.066C1076.09 562.634 1070.06 556.303 1065.55 547.959C1063.66 544.456 1061.85 540.843 1060.58 537.085C1059.53 533.957 1057.85 532.216 1054.76 530.992C1034.03 522.786 1013.23 514.739 992.793 505.863C983.955 502.026 975.849 499.825 967.137 505.337C966.049 506.026 964.649 506.285 963.356 506.576C955.108 508.43 947.061 510.577 938.348 507.99C889.39 493.455 839.47 483.704 788.625 478.769C779.888 477.921 771.147 477.113 762.408 476.286C762.199 475.766 761.991 475.245 761.782 474.725C763.473 473.739 765.081 472.101 766.869 471.872C778.127 470.428 788.602 466.82 798.166 460.8C825.937 443.322 842.757 416.965 856.253 388.091C857.087 386.306 855.761 382.154 854.098 380.936C852.414 379.702 848.61 379.894 846.545 380.989C843.395 382.659 840.991 385.7 838.186 388.059C829.196 395.618 819.619 402.248 808.031 405.126C804.304 406.051 800.338 406.014 795.289 406.542C797.165 402.472 798.098 399.586 799.698 397.136C805.117 388.836 802.867 381.173 797.753 373.987C794.981 370.09 791.693 366.398 788.043 363.317C775.637 352.844 761.275 345.987 745.663 341.754C735.548 339.012 725.383 338.076 715.19 341.647C710.879 343.157 707.663 345.522 705.985 350.016C704.621 353.672 702.648 357.099 700.745 361.04C693.048 353.812 690.175 344.911 689.166 335.621C688.11 325.892 688.251 316.025 688.052 306.215C687.977 302.518 686.487 299.558 682.935 299.455C680.655 299.39 677.062 301.044 676.183 302.922C665.974 324.735 657.914 347.278 656.276 371.558C654.983 390.724 657.696 409.095 668.544 425.622C669.341 426.836 669.02 429.381 668.319 430.888C662.706 442.956 656.352 454.707 651.308 467C648.281 474.378 644.167 477.248 636.152 477.883C620.948 479.089 606.003 480.963 592.277 471.942C587.554 468.838 582.444 466.303 577.849 463.033C575.145 461.109 572.746 460.566 569.559 461.31C531.319 470.23 493.043 478.994 454.831 488.034C452.491 488.587 450.197 490.775 448.6 492.776C441.867 501.21 435.761 510.17 428.681 518.287C425.685 521.722 421.145 524.324 416.802 525.989C385.697 537.915 355.218 551.208 325.659 566.584C324.094 567.398 322.578 568.308 320.925 569.237C321.582 570.071 322.064 570.837 322.166 570.789C331.748 566.299 341.301 561.748 351.554 556.929ZM787.003 623.535C785.641 615.712 785.203 607.582 782.718 600.133C778.027 586.072 767.066 578.92 752.757 578.997C738.929 579.071 728.295 586.54 723.465 600.462C717.718 617.025 717.727 633.858 723.439 650.423C728.239 664.341 738.951 671.912 752.672 672.003C767.118 672.099 778.274 664.817 782.808 650.43C785.411 642.172 785.684 633.179 787.003 623.535ZM850.405 608.5C850.405 599.09 850.405 589.679 850.405 579.998C844.432 579.998 839.274 579.844 834.136 580.1C832.742 580.169 830.96 581.14 830.119 582.267C817.074 599.746 804.132 617.302 791.258 634.908C790.463 635.994 789.872 637.738 790.117 638.995C792.121 649.297 791.692 650.343 802.016 650.079C807.841 649.93 813.674 650.052 819.503 650.052C823.943 650.052 828.382 650.052 833.352 650.052C833.352 657.309 833.352 663.9 833.352 670.691C839.258 670.691 844.617 670.691 850.547 670.691C850.547 663.753 850.547 657.163 850.547 650.693C860.592 648.988 861.595 647.226 859.15 636.213C856.449 636.058 853.69 635.9 850.405 635.711C850.405 626.751 850.405 618.126 850.405 608.5ZM705.405 600.501C705.405 593.754 705.405 587.006 705.405 579.998C699.427 579.998 694.269 579.844 689.13 580.1C687.738 580.17 685.957 581.143 685.116 582.27C672.07 599.75 659.129 617.307 646.254 634.912C645.46 635.998 644.872 637.743 645.117 639.001C647.122 649.295 646.689 650.343 657.021 650.079C662.847 649.93 668.679 650.052 674.508 650.052C678.948 650.052 683.387 650.052 688.356 650.052C688.356 657.313 688.356 663.904 688.356 670.688C694.261 670.688 699.619 670.688 705.55 670.688C705.55 663.749 705.55 657.159 705.55 650.689C715.586 648.999 716.605 647.209 714.147 636.212C711.445 636.057 708.686 635.9 705.405 635.712C705.405 624.081 705.405 612.791 705.405 600.501ZM494.231 703.669C500.251 699.824 506.559 696.359 512.229 692.052C522.578 684.19 531.103 674.682 535.409 662.089C540.77 646.408 534.671 632.227 519.268 626.272C513.03 623.859 506.048 622.24 499.397 622.218C468.406 622.118 441.875 633.557 420.509 655.873C415.041 661.584 410.712 669.039 407.856 676.461C402.002 691.675 408.583 705.877 423.775 711.768C430.009 714.185 436.947 715.52 443.643 715.872C461.335 716.802 477.818 711.732 494.231 703.669ZM977.926 657.417C990.905 661.496 1003.73 666.189 1016.91 669.458C1027.09 671.981 1037.75 672.513 1048.02 669.014C1057.11 665.917 1060.07 658.557 1054.97 650.47C1052.01 645.772 1048.12 641.336 1043.78 637.892C1021.55 620.288 995.918 610.554 967.941 607.224C960.961 606.393 953.53 606.897 946.635 608.35C935.668 610.66 932.437 619.497 938.633 628.828C941.087 632.523 944.026 636.31 947.629 638.747C957.241 645.248 967.333 651.04 977.926 657.417ZM765.583 256.487C769.071 247.816 775.496 241.623 782.795 236.198C788.937 231.633 795.331 227.387 801.273 222.58C811.259 214.501 812.81 204.129 804.635 194.183C799.644 188.11 793.152 183.196 786.993 178.181C781.973 174.093 776.323 170.789 771.177 166.845C764.894 162.028 763.679 156.38 768.22 149.877C771.308 145.454 775.623 141.884 779.421 137.963C780.421 136.931 781.537 136.012 782.6 135.042C782.199 134.615 781.799 134.188 781.398 133.761C775.128 137.614 769.714 142.479 765.87 148.943C761.28 156.661 762.498 163.251 769.612 168.686C774.896 172.723 780.688 176.112 785.852 180.287C791.772 185.071 797.933 189.833 802.756 195.632C810.038 204.387 808.756 213.272 799.981 220.549C794.612 225.001 788.508 228.575 783.2 233.09C777.537 237.908 771.701 242.82 767.232 248.676C759.931 258.243 759.248 269.121 765.509 279.559C769.678 286.51 774.907 292.829 779.748 299.367C780.384 300.225 781.537 300.699 782.45 301.351C782.763 301.014 783.077 300.678 783.39 300.341C782.397 299.12 781.338 297.945 780.42 296.668C776.153 290.735 771.652 284.946 767.756 278.776C763.556 272.124 762.682 264.797 765.583 256.487ZM434.224 550.76C432.629 551.956 430.611 552.861 429.542 554.418C428.052 556.587 426.115 559.484 426.557 561.617C426.908 563.314 430.464 565.295 432.722 565.462C438.144 565.863 443.721 565.808 449.09 564.986C470.111 561.768 490.326 555.979 508.391 544.285C511.913 542.005 516.674 539.42 515.116 534.352C513.544 529.239 508.154 529.832 503.962 530.028C479.288 531.183 456.272 538.148 434.224 550.76ZM740.598 335.461C740.882 336.01 741.166 336.56 741.45 337.11C741.952 336.433 742.822 335.793 742.894 335.072C743.218 331.85 743.314 328.605 743.521 324.864C762.269 330.943 779.206 338.969 795.592 349.161C792.197 352.399 789.379 355.086 786.56 357.773C787.056 358.283 787.551 358.793 788.047 359.302C791.723 356.004 795.399 352.706 799.641 348.9C781.105 337.126 762.279 328.09 741.314 321.74C741.06 326.508 740.842 330.599 740.598 335.461Z" fill="#615785"/>
<path d="M351.205 557.064C341.301 561.748 331.748 566.299 322.166 570.789C322.064 570.837 321.582 570.071 320.925 569.237C322.578 568.308 324.094 567.398 325.659 566.584C355.218 551.208 385.697 537.915 416.802 525.989C421.145 524.324 425.685 521.722 428.681 518.287C435.761 510.17 441.867 501.21 448.6 492.776C450.197 490.775 452.491 488.587 454.831 488.034C493.043 478.994 531.319 470.23 569.559 461.31C572.746 460.566 575.145 461.109 577.849 463.033C582.444 466.303 587.554 468.838 592.277 471.942C606.003 480.963 620.948 479.089 636.152 477.883C644.167 477.248 648.281 474.378 651.308 467C656.352 454.707 662.706 442.956 668.319 430.888C669.02 429.381 669.341 426.836 668.544 425.622C657.696 409.095 654.983 390.724 656.276 371.558C657.914 347.278 665.974 324.735 676.183 302.922C677.062 301.044 680.655 299.39 682.935 299.455C686.487 299.558 687.977 302.518 688.052 306.215C688.251 316.025 688.11 325.892 689.166 335.621C690.175 344.911 693.048 353.812 700.745 361.04C702.648 357.099 704.621 353.672 705.985 350.016C707.663 345.522 710.879 343.157 715.19 341.647C725.383 338.076 735.548 339.012 745.663 341.754C761.275 345.987 775.637 352.844 788.043 363.317C791.693 366.398 794.981 370.09 797.753 373.987C802.867 381.173 805.117 388.836 799.698 397.136C798.098 399.586 797.165 402.472 795.289 406.542C800.338 406.014 804.304 406.051 808.031 405.126C819.619 402.248 829.196 395.618 838.186 388.059C840.991 385.7 843.395 382.659 846.545 380.989C848.61 379.894 852.414 379.702 854.098 380.936C855.761 382.154 857.087 386.306 856.253 388.091C842.757 416.965 825.937 443.322 798.166 460.8C788.602 466.82 778.127 470.428 766.869 471.872C765.081 472.101 763.473 473.739 761.782 474.725C761.991 475.245 762.199 475.766 762.408 476.286C771.147 477.113 779.888 477.921 788.625 478.769C839.47 483.704 889.39 493.455 938.348 507.99C947.061 510.577 955.108 508.43 963.356 506.576C964.649 506.285 966.049 506.026 967.137 505.337C975.849 499.825 983.955 502.026 992.793 505.863C1013.23 514.739 1034.03 522.786 1054.76 530.992C1057.85 532.216 1059.53 533.957 1060.58 537.085C1061.85 540.843 1063.66 544.456 1065.55 547.959C1070.06 556.303 1076.09 562.634 1085.02 567.066C1117.73 583.288 1148.75 602.456 1178.71 623.332C1179.76 624.062 1180.76 624.85 1181.79 625.611C1181.61 626.133 1181.44 626.655 1181.26 627.177C1179.98 626.769 1178.53 626.622 1177.45 625.912C1168.28 619.869 1159.43 613.283 1149.98 607.696C1127.5 594.394 1104.92 581.233 1082 568.71C1074.96 564.86 1069.47 560.165 1065.48 553.453C1063.78 550.596 1061.58 547.806 1060.78 544.686C1058.68 536.474 1052.99 533.079 1045.55 530.257C1024.56 522.287 1003.88 513.502 982.973 505.313C980.687 504.418 977.582 504.83 975.064 505.462C967.508 507.357 960.147 510.144 952.524 511.617C948.289 512.436 943.436 512.175 939.28 510.965C882.004 494.292 823.651 483.706 764.15 479.53C762.509 479.415 759.834 480.63 759.171 481.978C750.656 499.296 742.419 516.751 734.13 534.18C734.005 534.443 734.115 534.818 734.115 535.865C738.376 535.865 742.694 535.865 747.871 535.865C744.207 538.811 616.401 539.405 608.869 536.363C614.408 536.363 619.947 536.363 625.842 536.363C628.114 516.004 635.508 498.109 645.115 479.677C634.715 480.61 625.536 481.552 616.337 482.184C613.608 482.371 610.496 482.382 608.114 481.277C597.441 476.328 587.008 470.863 576.388 465.794C574.333 464.812 571.646 463.937 569.566 464.407C531.913 472.914 494.296 481.577 456.728 490.449C454.387 491.001 452.079 493.207 450.516 495.23C446.961 499.83 444.095 504.96 440.563 509.58C432.88 519.63 423.746 527.116 411.26 531.624C390.959 538.954 371.416 548.385 351.205 557.064ZM750.265 356.04C741.374 354.077 732.56 351.145 723.569 350.425C714.766 349.721 706.075 351.748 702.914 362.206C702.697 362.922 701.971 363.483 700.943 364.816C698.547 362.126 695.833 360 694.359 357.218C691.811 352.406 688.883 347.344 688.165 342.106C686.568 330.457 686.341 318.625 685.284 306.892C685.123 305.11 683.507 303.46 682.564 301.749C680.964 302.822 678.592 303.53 677.882 305.026C670.015 321.616 663.561 338.712 660.471 356.92C657.038 377.149 655.91 397.722 666.38 415.89C672.2 425.987 670.473 432.973 665.917 441.985C655.635 462.324 645.915 482.961 636.504 503.72C631.987 513.683 629.462 524.377 628.581 535.913C632.557 535.913 636.036 536.024 639.504 535.877C642.129 535.765 645.409 537.102 646.704 533.262C648.179 528.886 653.128 524.958 648.383 519.773C645.61 516.744 646.138 513.673 648.047 510.289C650.497 505.946 652.49 501.348 654.749 496.894C655.332 495.743 656.174 494.724 656.897 493.644C657.384 493.915 657.87 494.186 658.356 494.456C655.836 499.74 653.563 505.162 650.708 510.259C648.746 513.763 648.466 516.733 651.135 519.795C653.704 522.742 653.49 525.662 651.494 528.893C650.272 530.871 649.625 533.205 648.586 535.701C650.259 535.805 651.085 535.902 651.912 535.903C677.075 535.906 702.239 535.825 727.401 535.991C730.484 536.011 731.334 534.431 732.368 532.258C741.594 512.865 750.913 493.517 760.071 474.093C761.477 471.112 763.278 469.93 766.614 469.119C775.43 466.976 784.713 465.194 792.577 460.972C822.688 444.81 839.751 417.249 853.98 387.574C854.556 386.375 853.883 383.447 852.913 382.909C851.555 382.155 848.958 382.258 847.625 383.124C844.866 384.915 842.675 387.555 840.101 389.664C829.318 398.499 817.97 406.369 803.764 408.513C800.21 409.049 796.506 408.593 792.132 408.593C793.029 406.103 793.214 405.097 793.713 404.282C797.873 397.482 796.287 390.97 792.029 385.165C788.717 380.649 785.06 375.891 780.472 372.91C771.033 366.777 760.869 361.762 750.265 356.04ZM776.024 366.458C786.014 373.188 794.564 381.157 799.289 392.985C799.932 389.205 800.306 385.433 799.261 382.106C796.728 374.035 790.873 368.225 784.342 363.22C771.918 353.7 758.018 347.032 742.814 343.406C733.01 341.068 723.027 340.308 713.554 345.002C711.734 345.904 710.405 347.8 709.03 349.07C716.861 348.89 724.169 347.892 731.261 348.727C747.385 350.627 761.752 357.595 776.024 366.458Z" fill="#F0F0F4"/>
<path d="M493.897 703.833C477.818 711.732 461.335 716.802 443.643 715.872C436.947 715.52 430.009 714.185 423.775 711.768C408.583 705.877 402.002 691.675 407.856 676.461C410.712 669.039 415.041 661.584 420.509 655.873C441.875 633.557 468.406 622.118 499.398 622.218C506.048 622.24 513.03 623.859 519.268 626.272C534.671 632.227 540.77 646.408 535.409 662.089C531.103 674.682 522.578 684.19 512.229 692.052C506.559 696.359 500.251 699.824 493.897 703.833ZM412.59 699.714C419.54 709.097 429.614 712.42 440.517 712.878C471.701 714.188 498.061 702.78 520.088 681.066C526.303 674.94 531.011 667.655 533.39 659.091C536.801 646.804 532.39 635.556 520.846 630.252C514.799 627.473 507.897 625.636 501.265 625.216C478.678 623.786 458.34 631.135 439.614 643.234C428.437 650.456 418.84 659.388 412.732 671.484C408.154 680.55 406.717 689.777 412.59 699.714Z" fill="#F1F0F4"/>
<path d="M977.58 657.265C967.333 651.04 957.241 645.248 947.629 638.747C944.026 636.31 941.087 632.523 938.633 628.828C932.437 619.497 935.668 610.66 946.635 608.35C953.53 606.897 960.961 606.393 967.941 607.224C995.918 610.554 1021.55 620.288 1043.78 637.892C1048.12 641.336 1052.01 645.772 1054.97 650.47C1060.07 658.557 1057.11 665.916 1048.02 669.014C1037.75 672.513 1027.09 671.981 1016.91 669.458C1003.73 666.189 990.905 661.496 977.58 657.265ZM1000.66 617.733C994.772 615.985 988.954 613.932 982.98 612.555C971.431 609.892 959.727 607.934 947.94 610.891C937.807 613.433 935.347 619.935 941.755 628.228C945.461 633.023 950.022 637.43 954.951 640.961C975.615 655.76 998.823 664.544 1023.97 667.637C1031.25 668.532 1038.99 667.941 1046.2 666.454C1054.73 664.695 1056.95 658.155 1051.99 650.966C1049.11 646.786 1045.46 642.952 1041.55 639.699C1029.65 629.811 1015.84 623.262 1000.66 617.733Z" fill="#F1F0F4"/>
<path d="M765.416 256.85C762.682 264.797 763.556 272.124 767.756 278.776C771.652 284.946 776.153 290.735 780.42 296.668C781.338 297.945 782.397 299.119 783.39 300.341C783.077 300.678 782.763 301.014 782.45 301.351C781.537 300.699 780.384 300.225 779.748 299.367C774.907 292.829 769.678 286.51 765.509 279.559C759.248 269.121 759.931 258.243 767.232 248.676C771.701 242.82 777.537 237.908 783.2 233.09C788.508 228.574 794.612 225.001 799.981 220.549C808.756 213.272 810.038 204.387 802.756 195.632C797.933 189.833 791.772 185.071 785.852 180.287C780.688 176.112 774.896 172.723 769.612 168.686C762.498 163.251 761.28 156.661 765.869 148.943C769.714 142.479 775.128 137.614 781.398 133.761C781.799 134.188 782.199 134.615 782.6 135.042C781.537 136.012 780.421 136.931 779.421 137.963C775.623 141.884 771.308 145.454 768.22 149.877C763.679 156.38 764.894 162.028 771.177 166.845C776.323 170.789 781.973 174.093 786.993 178.181C793.152 183.196 799.644 188.11 804.635 194.183C812.81 204.129 811.259 214.501 801.273 222.58C795.331 227.387 788.937 231.633 782.795 236.198C775.496 241.623 769.071 247.816 765.416 256.85Z" fill="#ECEBF1"/>
<path d="M434.521 550.552C456.272 538.148 479.288 531.183 503.962 530.028C508.154 529.832 513.544 529.239 515.116 534.352C516.674 539.42 511.913 542.005 508.391 544.285C490.326 555.979 470.111 561.768 449.09 564.986C443.721 565.808 438.144 565.863 432.722 565.462C430.464 565.295 426.908 563.314 426.557 561.617C426.115 559.484 428.052 556.587 429.542 554.418C430.611 552.861 432.629 551.956 434.521 550.552ZM456.337 560.984C459.417 560.292 462.633 559.959 465.553 558.847C478.551 553.899 491.569 548.97 504.341 543.477C507.782 541.997 510.381 538.559 513.366 536.021C513.077 535.352 512.787 534.682 512.498 534.013C509.65 533.622 506.802 532.898 503.953 532.894C489.977 532.877 476.443 535.925 463.551 540.856C452.779 544.976 442.581 550.632 432.271 555.886C430.783 556.644 430.092 558.966 429.032 560.564C430.914 561.375 432.828 562.94 434.672 562.861C441.622 562.565 448.55 561.734 456.337 560.984Z" fill="#F0F0F4"/>
<path d="M740.611 335.076C740.842 330.599 741.06 326.508 741.314 321.74C762.279 328.09 781.105 337.126 799.641 348.9C795.399 352.706 791.723 356.004 788.047 359.302C787.551 358.793 787.056 358.283 786.56 357.773C789.379 355.086 792.197 352.399 795.592 349.161C779.206 338.969 762.269 330.943 743.521 324.864C743.314 328.605 743.218 331.85 742.894 335.072C742.822 335.793 741.952 336.433 741.45 337.11C741.166 336.56 740.882 336.01 740.611 335.076Z" fill="#ECEBF1"/>
<path d="M750.634 356.163C760.869 361.762 771.033 366.777 780.472 372.91C785.06 375.891 788.717 380.649 792.029 385.165C796.287 390.97 797.873 397.482 793.713 404.282C793.214 405.097 793.029 406.103 792.132 408.593C796.506 408.593 800.21 409.049 803.764 408.513C817.97 406.369 829.318 398.499 840.101 389.664C842.675 387.555 844.866 384.915 847.625 383.124C848.958 382.258 851.555 382.155 852.913 382.909C853.883 383.447 854.556 386.375 853.98 387.574C839.751 417.249 822.688 444.81 792.577 460.972C784.713 465.194 775.43 466.976 766.614 469.119C763.278 469.93 761.477 471.112 760.071 474.093C750.913 493.517 741.594 512.865 732.368 532.258C731.334 534.431 730.484 536.011 727.401 535.991C702.239 535.825 677.075 535.906 651.912 535.903C651.085 535.902 650.259 535.805 648.586 535.701C649.625 533.205 650.272 530.871 651.494 528.893C653.49 525.662 653.704 522.742 651.135 519.795C648.466 516.733 648.746 513.763 650.708 510.259C653.563 505.162 655.836 499.74 658.356 494.456C657.87 494.186 657.384 493.915 656.897 493.644C656.174 494.724 655.332 495.743 654.749 496.894C652.49 501.348 650.497 505.946 648.047 510.289C646.138 513.673 645.61 516.744 648.383 519.773C653.128 524.958 648.179 528.886 646.704 533.262C645.409 537.102 642.129 535.765 639.504 535.877C636.036 536.024 632.557 535.913 628.581 535.913C629.462 524.377 631.987 513.683 636.504 503.72C645.915 482.961 655.635 462.324 665.917 441.985C670.473 432.973 672.2 425.987 666.38 415.89C655.91 397.722 657.038 377.149 660.471 356.92C663.561 338.712 670.015 321.616 677.882 305.026C678.592 303.53 680.964 302.822 682.564 301.749C683.507 303.46 685.123 305.11 685.284 306.892C686.341 318.625 686.568 330.457 688.165 342.106C688.883 347.344 691.811 352.406 694.359 357.218C695.833 360 698.547 362.126 700.943 364.816C701.971 363.483 702.697 362.922 702.914 362.206C706.075 351.748 714.766 349.721 723.569 350.425C732.56 351.145 741.374 354.077 750.634 356.163ZM721.572 474.148C720.865 472.833 720.267 471.444 719.433 470.214C714.801 463.379 705.044 459.464 697.08 461.176C689.546 462.796 683.188 469.269 681.876 476.655C680.327 485.369 683.458 492.883 690.517 497.391C698.771 502.663 707.745 502.729 714.802 497.57C721.818 492.439 724.307 484.458 721.572 474.148ZM708.976 424.368C708.912 425.695 708.771 427.022 708.796 428.347C708.964 437.048 714.555 444.446 722.443 446.46C730.887 448.615 740.243 444.493 744.506 436.738C748.912 428.726 747.365 418.818 740.723 412.506C734.861 406.934 725.63 406.291 718.12 410.969C713.376 413.924 710.443 418.199 708.976 424.368Z" fill="#7A729C"/>
<path d="M775.725 366.256C761.752 357.595 747.385 350.627 731.261 348.727C724.169 347.892 716.861 348.89 709.03 349.07C710.405 347.8 711.734 345.904 713.554 345.002C723.027 340.308 733.01 341.068 742.814 343.406C758.018 347.032 771.918 353.7 784.342 363.22C790.873 368.225 796.728 374.035 799.261 382.106C800.306 385.433 799.932 389.205 799.289 392.985C794.564 381.157 786.014 373.188 775.725 366.256Z" fill="#645A87"/>
<path d="M740.016 615.358C740.671 611.808 741.088 608.658 741.967 605.642C744.01 598.629 747.749 595.168 752.97 595.074C758.325 594.977 763.158 598.444 764.335 605.724C765.883 615.307 766.238 625.141 766.337 634.875C766.381 639.225 764.905 643.713 763.48 647.922C761.88 652.644 758.477 655.886 753.137 655.877C747.783 655.867 744.438 652.625 742.919 647.829C741.576 643.589 740.418 639.168 740.088 634.758C739.619 628.478 739.981 622.135 740.016 615.358Z" fill="#625886"/>
<path d="M833.298 631.859C832.403 633.557 831.56 635.774 830.611 635.82C824.203 636.131 817.773 635.983 810.172 635.983C818.15 624.739 825.484 614.403 833.3 603.387C833.3 613.347 833.3 622.361 833.298 631.859Z" fill="#625886"/>
<path d="M688.738 605.317C688.725 615.56 688.725 625.478 688.725 635.693C680.706 635.693 673.626 635.693 666.499 635.693C666.423 635.491 666.124 635.063 666.227 634.915C673.256 624.857 680.314 614.819 687.39 604.794C687.551 604.566 687.945 604.396 688.227 604.401C688.405 604.405 688.576 604.783 688.738 605.317Z" fill="#625886"/>
<path d="M412.382 699.404C406.717 689.777 408.154 680.55 412.732 671.484C418.84 659.388 428.436 650.456 439.614 643.234C458.34 631.135 478.678 623.786 501.265 625.216C507.897 625.636 514.799 627.473 520.846 630.252C532.39 635.556 536.801 646.804 533.39 659.091C531.011 667.655 526.303 674.94 520.088 681.066C498.061 702.78 471.701 714.188 440.517 712.878C429.614 712.42 419.54 709.097 412.382 699.404Z" fill="#625886"/>
<path d="M1001.03 617.853C1015.84 623.262 1029.65 629.811 1041.55 639.699C1045.46 642.952 1049.11 646.786 1051.99 650.966C1056.95 658.155 1054.73 664.695 1046.2 666.454C1038.99 667.941 1031.25 668.532 1023.97 667.637C998.823 664.544 975.615 655.76 954.951 640.961C950.022 637.43 945.461 633.023 941.755 628.228C935.347 619.935 937.807 613.433 947.94 610.891C959.727 607.934 971.431 609.892 982.98 612.555C988.954 613.932 994.772 615.985 1001.03 617.853Z" fill="#625886"/>
<path d="M455.911 561.044C448.55 561.734 441.622 562.565 434.672 562.861C432.828 562.94 430.914 561.375 429.032 560.564C430.092 558.966 430.783 556.644 432.271 555.886C442.581 550.632 452.779 544.976 463.551 540.856C476.443 535.925 489.977 532.877 503.953 532.894C506.802 532.898 509.65 533.622 512.498 534.013C512.787 534.683 513.077 535.352 513.366 536.021C510.38 538.559 507.782 541.997 504.341 543.477C491.569 548.97 478.551 553.899 465.553 558.847C462.633 559.959 459.417 560.292 455.911 561.044Z" fill="#645A87"/>
<path d="M721.723 474.518C724.307 484.458 721.818 492.439 714.802 497.57C707.746 502.729 698.771 502.663 690.517 497.391C683.458 492.883 680.327 485.369 681.876 476.655C683.188 469.269 689.546 462.796 697.08 461.176C705.044 459.464 714.801 463.379 719.433 470.214C720.267 471.444 720.865 472.833 721.723 474.518ZM706.321 463.872C695.877 461.369 686.123 467.082 684.111 476.879C681.999 487.163 688.734 496.753 699.525 498.827C709.579 500.76 718.856 494.08 720.478 483.74C721.797 475.334 717.073 468.387 706.321 463.872Z" fill="#F0F0F4"/>
<path d="M709.032 423.98C710.443 418.199 713.376 413.924 718.12 410.969C725.63 406.291 734.861 406.934 740.723 412.506C747.365 418.818 748.912 428.726 744.506 436.738C740.243 444.493 730.887 448.615 722.443 446.46C714.555 444.446 708.964 437.048 708.796 428.347C708.771 427.022 708.912 425.695 709.032 423.98ZM712.663 420.474C708.903 430.987 713.266 441.499 722.447 444.046C731.115 446.452 740.265 441.828 743.499 433.407C746.653 425.195 742.997 415.269 735.479 411.633C727.686 407.864 718.312 411.258 712.663 420.474Z" fill="#F0F0F4"/>
<path d="M706.708 463.968C717.073 468.387 721.797 475.334 720.478 483.74C718.856 494.08 709.579 500.76 699.525 498.827C688.734 496.753 681.999 487.163 684.111 476.879C686.123 467.082 695.877 461.369 706.708 463.968Z" fill="#645A87"/>
<path d="M712.825 420.125C718.312 411.258 727.686 407.864 735.479 411.633C742.997 415.269 746.653 425.195 743.499 433.407C740.265 441.828 731.115 446.452 722.447 444.046C713.266 441.499 708.903 430.987 712.825 420.125Z" fill="#645A87"/>
<path d="M1114.89 419.215C1115.01 417.276 1114.92 417.266 1117.17 416.475C1129.65 412.097 1142.2 408.284 1154.48 403.301C1157.49 402.08 1168.72 399.771 1170.07 395.735" stroke="#625886" stroke-width="3" stroke-linecap="round"/>
<path d="M800.262 590.616C811.611 588.86 822.646 586.051 833.785 583.311C837.142 582.486 841.883 582.782 844.743 580.637C849.335 577.193 833.275 581.62 827.655 582.79C815.815 585.253 804.042 587.988 792.435 591.399C790.747 591.895 789.076 592.452 787.413 593.029C786.944 593.192 785.548 593.647 786.044 593.616C786.875 593.564 787.659 593.205 788.457 592.964C803.424 588.45 818.279 584.071 833.525 580.572C849.371 576.935 825.552 579.006 821.654 579.789C818.29 580.466 810.863 579.49 811.806 582.79C812.083 583.76 820.453 582.402 820.48 582.398C829.718 581.267 838.691 578.866 847.873 577.441C851.217 576.923 849.746 579.025 847.938 580.768C841.831 586.657 832.945 588.764 826.611 594.464C825.1 595.824 820.135 600.372 825.698 598.769C837.081 595.489 848.947 590.331 858.765 583.637C861.553 581.737 868.312 576.068 860.07 578.615C844.982 583.279 830.569 590.009 815.784 595.508C810.738 597.385 805.166 598.854 800.523 601.704C800.377 601.793 795.168 605.285 795.957 606.073C796.329 606.445 797.001 606.336 797.522 606.269C800.974 605.825 808.427 603.656 810.958 602.878C821.322 599.692 831.504 595.933 841.547 591.855C851.641 587.757 864.359 584.464 873.44 578.354C876.399 576.364 861.627 584.186 860.396 584.877C846.736 592.534 830.466 595.359 817.48 603.921C813.368 606.633 810.099 607.28 815.784 602.486C829.102 591.258 874.263 565.549 857.917 571.571C848.472 575.051 839.557 580.448 830.981 585.594C827.398 587.744 801.084 599.632 801.566 605.421C801.612 605.968 821.976 599.543 823.35 599.095C832.152 596.222 840.644 592.393 849.699 590.355C863.444 587.263 824.552 603.285 811.219 607.834C798.704 612.104 819.485 599.577 821.263 598.312C832.749 590.143 844.745 583.037 856.613 575.485C868.559 567.883 831.187 588.027 819.045 595.312" stroke="#625886" stroke-width="3" stroke-linecap="round"/>
<path d="M740.389 638.749C748.549 626.508 765.641 628.715 778.087 623.944C791.05 618.975 803.188 612.087 815.132 605.095C821.086 601.61 825.27 596.364 831.438 593.486C835.636 591.526 839.769 591.79 844.286 591.79C850.74 591.79 848.395 598.24 848.395 603.53C848.395 607.125 848.793 610.987 848.265 614.552C847.653 618.679 845.833 618.668 846.699 613.965C847.652 608.794 848.655 603.566 849.83 598.443C850.509 595.484 852.553 591.447 851.917 588.268C851.743 587.397 842.822 597.276 842.264 597.921C837.477 603.449 831.284 607.73 826.611 613.183C825.321 614.688 823.92 615.023 824.068 612.074C824.592 601.59 830.433 593.062 835.286 584.224C835.596 583.659 840.749 572.464 839.655 578.094C835.927 597.295 830.432 616.289 825.568 635.227C822.174 648.441 818.834 661.667 815.197 674.817C813.321 681.602 820.018 671.899 821.133 670.512C829.901 659.605 836.601 647.292 844.547 635.814C845.304 634.72 851.787 624.204 851.787 629.423C851.787 643.368 848.617 658.864 843.699 671.882C841.699 677.176 842.486 666.645 842.525 665.36C842.716 659.116 845.221 653.99 846.96 648.141C847.162 647.461 846.536 658.967 846.047 661.903C845.567 664.782 843.917 664.268 843.764 661.512C843.181 651.012 846.31 641.2 848.917 631.184C850.436 625.345 851.542 618.458 855.178 613.444C857.078 610.823 858.869 613.33 858.961 615.531C859.545 629.54 858.214 641.999 846.047 650.946C830.83 662.135 815.563 651.137 801.958 641.75C790.404 633.777 784.426 620.661 779 608.095C777 603.464 776.408 597.004 773.521 592.834C770.146 587.958 774.917 604.612 775.543 610.509C776.767 622.034 776.335 633.477 776.847 645.011C777.104 650.778 778.18 651.198 782.261 646.315C795.924 629.964 804.676 610.201 816.045 592.312C820.78 584.861 825.351 576.089 831.503 569.68C834.012 567.066 829.766 593.171 829.285 594.986C825.925 607.669 822.554 621.153 817.937 633.466C817.742 633.985 817.708 634.706 817.219 634.967C815.915 635.662 817.02 631.996 817.219 630.531C818.432 621.637 820.77 612.917 823.024 604.247C824.25 599.531 831.299 581.072 822.567 594.008C812.056 609.58 803.27 625.878 791.783 640.836C787.594 646.292 783.518 653.015 778.608 657.924C776.113 660.42 776.742 652.472 776.717 651.859C775.838 630.334 767.276 610.323 766.216 588.92C765.677 578.025 761.365 597.092 760.999 599.095C758.949 610.31 759.76 623.535 756.303 634.314C754.386 640.289 754.653 631.396 754.803 630.271C756.36 618.59 760.901 607.402 763.868 596.029C768.584 577.952 764.224 602.826 763.281 607.313C760.45 620.787 757.64 634.398 755.194 647.946C755.031 648.846 754.399 659.136 752.389 659.359C751.725 659.433 752.606 645.626 752.65 645.271C753.519 638.279 755.406 629.503 759.172 623.357C762.201 618.415 760.346 634.91 760.346 640.706C760.346 648.533 760.346 656.359 760.346 664.186C760.346 665.177 761.39 673.172 761.39 668.099C761.39 660.29 759.795 652.132 757.868 644.619C754.355 630.926 750.945 618.435 748.998 604.443C748.752 602.674 744.178 573.368 741.432 585.724C738.004 601.152 733.596 616.17 728.258 631.053C726.315 636.47 722.8 642.361 721.67 648.011C719.57 658.512 725.025 626.843 726.04 616.183C726.274 613.729 726.834 611.897 727.41 609.595C728.949 603.437 727.799 622.313 727.279 628.64C726.655 636.233 723.819 642.924 721.214 649.967C718.991 655.976 720.153 646.413 719.648 643.576C718.314 636.069 716.598 629.083 716.909 621.401C717.3 611.764 727.37 635.161 727.866 636.401C732.27 647.41 735.945 659.013 739.084 670.447C740.71 676.37 740.916 685.682 744.954 690.731C747.766 694.245 745.085 681.73 745.085 677.23C745.085 669.838 745.085 662.446 745.085 655.055C745.085 649.107 741.65 657.601 740.258 659.555C732.812 670.006 724.974 680.406 714.822 688.383C712.315 690.352 709.319 693.569 708.169 688.97C706.04 680.453 703.894 671.345 703.082 662.62C702.178 652.905 702.821 642.881 702.821 633.14C702.821 626.143 701.022 616.049 703.734 609.269C705.491 604.878 703.248 618.785 702.039 623.357C701.942 623.721 696.299 637.217 696.299 632.879C696.299 622.76 701.262 612.932 700.408 602.682C700.165 599.766 697.155 593.526 701.06 591.79C708.483 588.491 684.335 594.852 678.168 600.138C670.63 606.599 664.292 614.472 659.906 623.488C658.451 626.478 654.294 631.26 653.644 634.184C652.4 639.786 650.81 645.532 649.731 651.141C649.149 654.171 648.1 656.132 652.405 655.316C664.609 653.001 675.987 647.871 687.951 644.75C693.23 643.372 702.725 638.785 700.212 648.206C697.374 658.851 676.221 658.55 667.863 661.707C663.927 663.194 676.161 663.099 680.32 663.729C696.152 666.128 712.003 669.432 725.388 678.6C726.091 679.081 734.46 686.873 735.954 685.839C740.18 682.913 738.192 670.061 738.562 666.012C739.151 659.572 744.836 643.467 734.78 641.358C716.602 637.547 699.233 635.249 682.864 646.38C681.212 647.503 669.035 659.415 671.319 659.229C693.01 657.458 715.766 647.674 736.28 640.836C742.814 638.658 748.917 635.298 755.39 633.14C759.819 631.664 747.607 638.319 743.519 640.576C737.077 644.132 729.83 647.255 723.953 651.663" stroke="#625886" stroke-width="30" stroke-linecap="round"/>
</g>
<defs>
<clipPath id="clip0_0_1">
<rect width="1500" height="850" fill="white"/>
</clipPath>
</defs>
</svg>
