<?xml version="1.0" standalone="no"?>
<!DOCTYPE svg PUBLIC "-//W3C//DTD SVG 20010904//EN"
 "http://www.w3.org/TR/2001/REC-SVG-20010904/DTD/svg10.dtd">
<svg version="1.0" xmlns="http://www.w3.org/2000/svg"
 width="2202.000000pt" height="1124.000000pt" viewBox="0 0 2202.000000 1124.000000"
 preserveAspectRatio="xMidYMid meet">
<metadata>
Created by potrace 1.16, written by Peter Selinger 2001-2019
</metadata>
<g transform="translate(0.000000,1124.000000) scale(0.100000,-0.100000)"
fill="#000000" stroke="none">
<path d="M14837 10815 c-4 -22 -7 -78 -7 -125 0 -47 -5 -139 -10 -205 -94
-1117 -507 -1809 -1357 -2274 l-131 -73 -169 -28 c-969 -166 -1888 -182 -2833
-49 -301 42 -550 86 -1205 214 -923 180 -1346 230 -1950 229 -548 -1 -948 -44
-1515 -164 -102 -22 -239 -44 -305 -50 -762 -70 -1614 -582 -2153 -1296 -239
-317 -412 -686 -481 -1024 -34 -165 -44 -293 -38 -475 10 -300 70 -534 208
-805 247 -486 699 -889 1169 -1044 185 -61 252 -71 470 -70 178 0 204 3 293
27 113 30 258 96 360 164 91 60 234 204 310 310 67 95 164 278 198 377 29 83
104 168 184 207 69 33 191 33 285 -2 l65 -24 2 -315 c6 -962 10 -1156 23
-1180 22 -40 103 -121 142 -141 79 -40 184 -17 268 60 l40 36 10 675 c17 1081
28 1294 86 1615 27 155 80 367 117 467 23 65 23 66 7 137 -27 113 -89 227
-171 315 -83 89 -222 186 -266 186 -76 0 -221 -55 -302 -114 l-47 -35 -70 60
c-138 120 -237 163 -375 164 -84 0 -86 -1 -137 -39 -63 -48 -125 -130 -165
-216 -32 -70 -77 -235 -77 -281 0 -16 -4 -29 -10 -29 -5 0 -10 4 -10 9 0 16
-165 184 -228 232 -209 158 -509 247 -892 265 l-135 7 -77 -60 c-360 -277
-570 -551 -632 -821 -20 -89 -20 -237 -1 -322 34 -142 151 -323 287 -442 75
-66 103 -80 210 -102 295 -61 557 67 691 337 50 103 71 258 64 477 -6 180 -25
269 -87 398 -61 128 -133 224 -283 378 l-137 142 67 -13 c385 -74 709 -205
910 -367 128 -104 229 -255 269 -403 29 -107 35 -610 9 -759 -81 -465 -373
-772 -825 -869 -122 -26 -334 -27 -467 -4 -440 79 -818 353 -1016 736 -186
359 -221 760 -108 1234 36 153 106 315 202 470 331 533 986 924 1929 1152 85
20 241 59 345 86 808 206 1548 251 2555 154 204 -20 621 -73 1060 -134 890
-125 1247 -162 1766 -182 416 -17 872 4 1261 57 l112 15 158 -158 c403 -404
756 -665 1155 -858 207 -99 362 -155 432 -155 70 0 265 26 334 44 l53 14 29
-65 c106 -233 272 -383 505 -456 80 -25 282 -64 288 -56 2 2 37 42 78 89 234
267 437 601 572 945 49 124 112 322 131 412 l7 32 -68 -29 c-181 -76 -395 -64
-650 36 -99 39 -97 37 -77 102 6 21 -26 170 -58 272 -61 194 -162 331 -284
387 -54 25 -70 27 -179 27 -110 0 -128 -2 -215 -32 -52 -18 -139 -57 -193 -85
-93 -49 -101 -55 -132 -112 -56 -100 -96 -236 -102 -345 -9 -164 33 -285 134
-392 74 -76 146 -103 283 -103 75 0 104 4 141 21 61 29 110 74 160 147 l41 62
-5 76 c-8 98 -37 175 -84 221 -44 43 -79 58 -134 58 -57 0 -100 -21 -141 -69
-41 -48 -59 -100 -67 -194 l-6 -67 -35 51 c-49 72 -49 143 0 247 30 66 39 76
83 99 191 96 413 41 493 -124 25 -51 29 -69 29 -148 l0 -90 -52 -90 c-180
-313 -375 -488 -620 -557 -98 -27 -280 -29 -393 -4 -114 26 -261 78 -407 145
-252 115 -574 356 -740 553 -73 87 -149 195 -142 203 3 2 59 16 124 30 156 33
413 102 595 160 170 53 440 150 490 176 47 24 247 210 377 350 177 192 308
361 420 543 30 50 56 92 57 93 1 1 47 -14 104 -33 252 -84 471 -83 655 4 266
125 454 442 557 937 30 147 63 365 56 372 -2 3 -32 -1 -66 -8 -83 -16 -299 -6
-418 20 -139 31 -300 87 -425 150 l-112 56 -7 85 c-4 47 -11 110 -16 140 l-8
55 -7 -40z m498 -753 c11 -5 33 -24 49 -41 27 -28 28 -31 10 -38 -25 -11 -251
-10 -289 0 l-30 9 30 24 c83 68 161 84 230 46z m-171 -504 c-66 -129 -173
-185 -373 -195 -96 -5 -113 -4 -109 8 3 8 22 55 43 106 l36 91 44 -19 c113
-50 218 -45 316 15 30 18 55 31 57 30 2 -1 -4 -17 -14 -36z m198 -2608 c35
-17 71 -30 80 -30 69 0 -27 -52 -141 -76 -98 -21 -107 -19 -115 17 -8 41 -8
148 0 188 l7 31 53 -50 c29 -28 82 -64 116 -80z m-386 -445 c34 -8 86 -25 115
-38 67 -30 170 -107 188 -140 13 -24 10 -30 -45 -96 -32 -39 -60 -71 -63 -71
-4 0 -25 29 -49 65 -54 80 -157 184 -242 243 -36 25 -69 50 -75 55 -12 11 86
0 171 -18z m-8946 -382 c1 -122 63 -260 160 -353 l68 -65 -9 -310 c-4 -171 -8
-345 -9 -388 l0 -77 -47 23 c-137 69 -273 80 -398 34 -38 -14 -71 -24 -74 -21
-3 3 -7 87 -9 187 -4 205 11 361 53 520 27 105 88 255 130 320 45 69 119 166
128 167 4 0 7 -17 7 -37z m-2061 -45 c252 -151 331 -260 386 -535 l17 -83 -40
-83 c-71 -145 -176 -227 -320 -249 l-70 -11 -77 44 c-110 63 -187 136 -227
216 -28 58 -32 75 -32 147 0 100 25 182 98 321 48 93 166 285 175 285 2 0 43
-23 90 -52z"/>
<path d="M3830 5938 c-228 -366 -212 -564 58 -715 56 -31 69 -35 112 -30 118
14 214 90 272 213 30 63 30 67 18 127 -34 175 -95 298 -186 373 -53 45 -187
134 -201 134 -5 0 -37 -46 -73 -102z"/>
<path d="M10782 9138 c-11 -18 -114 -205 -230 -414 -210 -380 -211 -382 -200
-420 30 -110 83 -155 180 -153 29 0 61 4 71 7 9 4 74 108 145 232 135 238 152
258 236 281 52 14 116 -1 166 -39 19 -15 185 -149 368 -299 l334 -273 68 0
c98 0 122 14 144 83 3 9 3 38 -1 62 -6 44 -7 46 -102 104 -217 133 -393 273
-601 477 -85 84 -198 204 -250 268 l-95 115 -107 0 -106 1 -20 -32z"/>
<path d="M10273 7458 c-34 -38 -43 -64 -43 -125 l0 -59 123 -131 c265 -285
511 -486 791 -647 116 -67 121 -67 245 -5 87 43 121 79 121 128 0 43 -56 102
-144 153 -119 69 -231 148 -492 344 -137 103 -309 227 -383 276 -147 96 -181
106 -218 66z"/>
<path d="M11728 6813 c-26 -7 -32 -61 -22 -202 16 -235 12 -331 -23 -496 -45
-210 -56 -338 -50 -582 5 -232 20 -333 74 -513 33 -111 37 -117 96 -178 135
-139 325 -256 487 -303 104 -29 329 -38 417 -15 77 19 205 83 300 148 84 58
211 188 266 271 98 147 177 361 212 573 l16 99 -26 80 c-102 310 -299 543
-567 670 -194 92 -488 66 -754 -65 l-122 -60 -23 -83 c-22 -73 -24 -102 -24
-272 0 -196 4 -223 56 -417 27 -100 52 -128 168 -186 148 -74 273 -78 407 -12
75 37 166 129 199 203 32 68 41 155 25 231 -11 56 -21 69 -187 263 -96 113
-172 207 -169 210 15 15 105 22 161 12 100 -18 188 -71 296 -178 110 -109 109
-108 109 -281 -1 -314 -83 -572 -245 -770 -46 -56 -56 -62 -128 -85 -153 -49
-328 -28 -500 59 -73 37 -90 51 -150 126 -79 99 -158 251 -188 365 -17 61 -22
111 -23 215 -1 127 4 162 83 612 94 538 93 506 11 548 -37 19 -133 26 -182 13z
m729 -875 c100 -68 149 -143 179 -275 l16 -72 -27 -53 c-14 -29 -38 -66 -53
-82 -35 -37 -117 -76 -162 -76 -77 0 -208 109 -230 191 -24 87 14 205 120 373
l42 66 37 -22 c20 -12 55 -35 78 -50z"/>
<path d="M12318 5887 c-73 -127 -91 -170 -96 -238 -5 -76 8 -109 63 -157 59
-52 106 -72 148 -62 56 12 99 42 132 91 25 37 30 53 29 99 -2 88 -37 166 -103
230 -31 30 -75 65 -97 77 l-40 22 -36 -62z"/>
<path d="M8967 6740 c-136 -25 -288 -69 -413 -120 -53 -22 -98 -41 -100 -42
-13 -14 -26 -209 -21 -348 8 -274 71 -514 207 -798 93 -192 142 -262 279 -402
288 -292 588 -437 1032 -499 234 -33 323 -36 399 -16 304 83 490 309 490 596
0 125 -52 189 -154 189 l-51 -1 -44 -65 c-58 -85 -171 -198 -260 -259 -90 -61
-148 -75 -356 -82 -279 -9 -357 17 -501 169 -239 254 -380 669 -410 1199 l-7
127 74 13 c98 18 486 19 589 1 41 -8 133 -27 203 -44 71 -16 131 -28 134 -25
2 3 -4 56 -14 118 l-18 113 -76 37 c-100 49 -231 95 -359 126 -90 21 -134 25
-310 29 -172 3 -222 0 -313 -16z"/>
<path d="M7237 6736 c-86 -10 -101 -15 -118 -36 -36 -47 -59 -127 -59 -203 0
-62 20 -172 35 -197 2 -4 40 1 82 12 133 32 263 48 393 48 136 0 214 -10 331
-41 l76 -20 27 -197 c15 -108 30 -210 32 -227 l5 -30 -198 -1 c-360 -1 -574
-51 -738 -174 -63 -47 -169 -179 -217 -271 -97 -187 -96 -418 3 -668 24 -62
40 -86 76 -116 167 -140 355 -181 507 -112 117 54 239 216 277 370 17 72 7
202 -20 256 -45 86 -150 164 -280 206 -99 32 -248 -1 -325 -73 -77 -72 -97
-198 -51 -325 26 -76 33 -83 122 -128 109 -55 197 -49 230 14 20 40 28 138 15
205 -9 51 -9 52 10 36 33 -31 78 -108 94 -161 19 -66 7 -116 -38 -160 -140
-136 -383 -84 -478 101 l-35 69 0 146 0 146 50 70 c80 114 192 217 281 262 76
37 81 38 183 38 104 0 108 -1 191 -41 84 -41 183 -109 228 -157 l23 -24 -18
-428 c-17 -408 -18 -428 -38 -441 -11 -8 -81 -55 -155 -104 -358 -237 -566
-476 -645 -745 -23 -75 -27 -110 -28 -210 0 -133 15 -211 63 -333 59 -146 182
-330 318 -473 l64 -69 147 0 c446 0 732 154 903 486 102 198 147 418 155 756
l6 227 66 -34 c200 -100 321 -267 321 -443 0 -214 -158 -521 -450 -876 l-95
-115 -105 -45 c-235 -101 -466 -146 -790 -153 -515 -12 -901 50 -2070 337
-799 196 -1112 261 -1480 305 -182 22 -553 31 -703 16 -643 -63 -1076 -355
-1349 -912 -53 -108 -122 -281 -130 -324 -6 -36 26 -26 57 18 124 177 450 522
620 657 387 307 761 426 1247 398 286 -16 526 -67 1291 -272 910 -245 1339
-336 1929 -411 l207 -26 243 26 c430 46 655 83 863 142 610 174 924 550 1000
1199 25 215 21 288 -21 402 -72 192 -151 318 -269 431 -187 177 -437 252 -743
223 -70 -7 -138 -15 -152 -18 -31 -7 -33 -44 20 421 77 670 95 969 71 1185
-29 262 -105 416 -241 485 -68 34 -291 91 -412 104 -120 14 -281 12 -411 -3z
m856 -2896 c69 -26 98 -61 161 -190 40 -83 41 -87 41 -190 0 -96 -2 -109 -29
-160 -38 -72 -149 -182 -257 -253 -79 -52 -265 -156 -280 -157 -9 0 -76 114
-122 206 -88 176 -93 328 -17 560 17 50 29 66 68 96 153 117 287 144 435 88z"/>
<path d="M7840 3783 c-48 -16 -136 -71 -163 -100 -24 -28 -67 -189 -74 -278
-8 -120 19 -215 106 -364 l42 -71 57 32 c206 114 346 229 398 329 24 45 29 66
28 129 0 64 -5 86 -32 145 -60 128 -86 160 -143 179 -64 20 -160 20 -219 -1z"/>
<path d="M11095 6345 c-55 -8 -145 -15 -200 -16 -127 -2 -167 -12 -199 -50
-20 -23 -26 -42 -26 -78 l0 -48 77 -7 c42 -3 115 -6 163 -6 98 0 135 -16 177
-79 57 -84 57 -105 14 -985 -17 -341 -29 -622 -26 -624 3 -3 37 -14 76 -24 91
-23 188 -71 246 -122 l46 -41 96 0 c143 0 213 34 252 120 40 87 13 164 -79
225 -42 28 -127 60 -159 60 -7 0 -13 1 -14 3 -1 1 -15 354 -33 784 l-32 783
-34 35 c-73 75 -169 95 -345 70z"/>
<path d="M10032 6304 c-198 -58 -337 -171 -418 -338 -147 -305 -30 -692 270
-890 70 -47 105 -55 216 -56 227 0 357 104 393 313 9 58 8 65 -16 112 -40 79
-91 131 -165 167 -61 30 -75 33 -182 37 -107 3 -118 5 -152 30 -108 80 -113
165 -14 260 l36 35 142 -63 c79 -35 152 -65 164 -68 18 -4 23 3 39 59 34 118
21 229 -36 310 -32 45 -136 118 -168 117 -14 0 -63 -11 -109 -25z"/>
<path d="M16400 5151 c-141 -15 -502 -128 -819 -255 -86 -35 -329 -140 -541
-234 -212 -93 -440 -193 -507 -221 -923 -385 -1560 -445 -2238 -211 -65 23
-128 46 -138 52 -10 5 -21 7 -24 4 -4 -3 50 -32 118 -65 701 -334 1499 -284
2460 154 142 65 348 171 497 257 253 146 665 294 981 354 165 32 428 43 564
25 457 -61 794 -306 1138 -826 47 -71 153 -242 234 -380 256 -432 376 -604
532 -760 245 -248 534 -356 867 -325 137 13 135 12 223 71 237 160 363 370
323 539 -21 86 -84 130 -142 99 -23 -13 -57 -83 -58 -120 0 -25 -4 -28 -63
-38 -283 -49 -570 63 -939 369 -55 46 -235 214 -400 374 -387 377 -515 495
-673 623 -356 288 -699 454 -1030 502 -105 15 -280 20 -365 12z"/>
<path d="M10006 4388 c-141 -199 -203 -397 -177 -567 23 -147 85 -256 228
-399 l93 -93 43 26 c164 101 378 189 562 231 160 36 412 45 561 20 341 -58
599 -239 730 -511 47 -97 80 -209 90 -309 l6 -62 172 -28 c94 -16 177 -31 184
-33 6 -3 12 1 12 10 0 28 -60 223 -101 327 -244 628 -689 978 -1352 1065 -142
18 -490 19 -657 2 l-116 -12 -109 197 c-61 109 -113 198 -117 198 -4 0 -27
-28 -52 -62z"/>
<path d="M11835 2437 c-74 -35 -151 -123 -173 -199 -17 -59 -19 -61 -121 -135
-57 -42 -138 -105 -179 -140 -52 -44 -80 -62 -91 -57 -9 4 -45 9 -80 12 -106
8 -227 -27 -258 -75 l-15 -23 -30 25 c-37 31 -66 39 -129 33 -37 -4 -58 -12
-76 -31 l-26 -26 -45 35 c-65 50 -135 67 -230 58 -42 -3 -97 -13 -122 -20 -25
-8 -55 -14 -68 -14 -12 0 -43 -10 -68 -22 l-46 -21 -25 32 c-60 76 -165 80
-240 9 -18 -17 -23 -18 -23 -6 0 31 -34 48 -99 48 -81 0 -117 -16 -179 -81
-92 -96 -138 -222 -96 -263 42 -43 102 4 160 127 39 84 49 93 89 83 33 -8 32
-25 -6 -72 -81 -100 -107 -232 -61 -306 53 -86 165 -50 219 71 16 36 22 187 9
229 -4 11 5 31 23 52 26 31 31 34 57 25 15 -6 36 -25 47 -42 18 -32 18 -37 2
-155 -20 -145 -44 -289 -52 -301 -3 -5 -19 5 -37 22 -17 16 -44 35 -59 40 -57
22 -81 14 -178 -59 -52 -39 -105 -73 -118 -77 -91 -24 -156 155 -131 365 26
218 136 484 237 572 117 103 293 117 367 29 29 -35 35 -35 70 -8 39 31 34 63
-15 99 -113 81 -258 93 -385 30 -97 -47 -206 -159 -261 -266 -153 -295 -191
-716 -80 -881 44 -65 96 -93 172 -93 78 0 130 25 205 96 49 46 64 55 84 50 31
-8 62 -58 77 -125 9 -44 16 -55 44 -68 29 -14 34 -14 58 2 39 25 66 127 121
464 30 177 40 219 58 238 25 27 54 30 79 7 17 -15 20 -15 43 -1 13 9 28 26 31
38 7 21 11 22 102 16 103 -7 166 -29 171 -60 4 -22 -96 -124 -260 -265 -93
-80 -108 -97 -108 -123 0 -52 27 -86 119 -149 49 -33 118 -87 152 -119 35 -32
74 -63 86 -70 30 -15 68 -5 87 24 19 28 40 154 61 355 33 326 35 341 61 352
18 8 29 7 49 -6 32 -21 32 -39 -4 -84 -37 -47 -51 -98 -51 -188 0 -123 31
-167 120 -168 57 -1 96 23 117 72 21 49 20 182 -1 241 -24 64 -21 103 10 132
24 22 33 24 135 24 l109 0 0 -68 c0 -56 -9 -97 -50 -218 -27 -82 -52 -177 -56
-212 -7 -73 9 -173 33 -199 22 -25 65 -23 90 5 53 58 71 129 88 362 15 200 23
240 54 292 30 47 64 67 89 52 16 -10 26 -10 47 -1 30 14 141 16 149 3 3 -5 -8
-76 -25 -157 -42 -207 -59 -325 -59 -421 0 -73 3 -85 26 -113 15 -17 39 -37
55 -45 33 -17 125 -20 166 -4 135 50 268 279 250 431 -8 66 -28 95 -77 109
-33 10 -47 9 -84 -5 -49 -19 -112 -81 -122 -121 -17 -66 29 -160 73 -149 36 9
28 -13 -21 -63 -38 -37 -50 -44 -78 -41 l-33 3 1 80 c1 96 51 313 93 402 32
68 69 96 147 114 43 10 56 8 109 -11 93 -34 119 -36 145 -10 23 23 22 59 -3
88 -22 27 -109 62 -167 69 -33 3 -60 8 -60 10 0 2 18 30 41 63 56 82 79 147
79 223 l0 63 73 24 c93 30 170 32 217 4 39 -23 75 -80 85 -133 14 -83 46 -120
72 -85 18 25 17 156 -3 202 -19 47 -58 88 -109 115 -59 31 -206 35 -300 8
l-70 -20 -25 23 c-40 37 -65 46 -132 46 -45 0 -77 -7 -113 -23z m155 -250 c0
-23 -85 -184 -126 -236 -54 -72 -76 -85 -112 -68 -50 26 -123 38 -181 31 l-56
-6 25 19 c59 47 423 272 443 273 4 0 7 -6 7 -13z m-1426 -704 c-3 -16 -11 -78
-17 -140 l-12 -112 -79 56 -79 56 44 36 c24 19 67 57 94 83 28 26 51 48 52 48
1 0 0 -12 -3 -27z"/>
<path d="M16275 2363 c-153 -47 -278 -205 -363 -459 -91 -270 -95 -567 -10
-727 41 -77 76 -100 153 -105 76 -5 126 17 179 80 46 53 54 49 109 -57 38 -73
45 -80 74 -83 66 -6 96 59 124 265 40 306 74 427 135 484 20 19 28 21 46 11
44 -21 66 -22 108 -6 72 29 270 5 295 -36 13 -21 -46 -88 -182 -207 -75 -65
-142 -122 -149 -126 -22 -13 -46 -67 -40 -91 9 -38 45 -75 122 -127 41 -27
113 -83 160 -124 47 -41 94 -75 104 -75 10 0 31 10 45 23 22 19 29 38 45 132
10 61 26 187 35 280 15 153 33 296 38 301 1 1 14 5 29 9 19 5 32 1 47 -14 27
-27 27 -34 -8 -73 -40 -47 -55 -100 -56 -200 0 -102 17 -134 83 -158 58 -20
117 0 146 49 31 53 34 171 7 260 -19 64 -20 74 -7 105 8 19 23 38 33 43 10 5
57 7 105 3 120 -8 132 -20 125 -115 -4 -50 -20 -110 -57 -210 -28 -77 -54
-167 -58 -200 -9 -78 1 -161 24 -186 37 -41 109 -11 149 63 25 46 28 63 37
217 19 351 63 470 158 431 21 -9 52 -10 100 -6 61 6 71 5 89 -13 33 -33 25
-49 -36 -80 -64 -32 -96 -62 -112 -104 -30 -77 2 -137 73 -137 43 0 69 12 110
49 22 20 30 23 34 12 13 -37 51 -61 96 -61 59 0 74 7 91 41 34 64 3 154 -65
189 -22 11 -40 27 -40 36 0 26 31 70 61 88 38 22 71 13 110 -32 30 -33 31 -39
26 -93 -4 -31 -27 -122 -53 -200 -65 -202 -72 -336 -19 -396 20 -24 26 -26 51
-18 66 24 102 149 114 405 9 189 22 247 75 316 22 28 29 32 45 24 25 -13 147
-13 240 1 88 13 148 2 186 -36 20 -20 24 -34 24 -81 0 -50 -2 -55 -17 -49 -49
20 -109 17 -160 -9 -61 -30 -80 -55 -129 -167 -57 -127 -60 -247 -8 -309 48
-57 138 -32 171 49 20 47 29 210 14 239 -10 18 -8 25 9 42 21 21 29 23 54 14
28 -11 29 -66 2 -176 -30 -124 -33 -180 -8 -227 20 -41 54 -53 102 -37 43 14
60 46 60 113 0 95 49 489 67 543 11 33 29 61 46 74 25 18 31 19 60 7 71 -30
138 -26 157 9 28 52 -39 120 -137 140 -64 14 -114 0 -173 -49 l-35 -29 -37 33
c-20 19 -56 40 -80 47 -59 18 -240 15 -301 -5 -34 -11 -57 -13 -80 -6 -36 10
-86 -2 -130 -34 l-28 -19 -68 31 c-37 17 -83 31 -102 31 -36 0 -128 -40 -148
-64 -9 -11 -22 -9 -69 10 -31 13 -78 24 -103 24 -26 0 -60 7 -75 15 -46 24
-105 19 -170 -15 -34 -18 -60 -27 -64 -21 -3 6 -26 19 -50 30 -35 15 -68 20
-148 20 -111 1 -129 -4 -179 -52 -18 -17 -33 -26 -33 -20 0 6 -15 21 -34 32
-59 37 -177 23 -204 -25 -8 -14 -12 -12 -38 9 -68 57 -113 72 -209 71 -49 -1
-109 -7 -132 -13 -35 -10 -53 -9 -98 4 -50 15 -60 15 -108 1 -29 -9 -72 -29
-94 -45 l-41 -29 -27 28 c-14 15 -50 40 -78 56 -62 33 -152 37 -214 8 -47 -23
-118 -92 -166 -164 -25 -37 -37 -48 -37 -35 1 42 41 200 64 250 77 169 226
306 330 305 31 -1 107 -37 138 -67 24 -23 28 -24 55 -11 46 22 42 57 -11 106
-73 67 -183 88 -291 55z m171 -720 c-3 -10 -10 -56 -16 -103 -11 -86 -39 -230
-45 -230 -2 0 -27 11 -57 25 -79 37 -94 34 -158 -34 -69 -72 -92 -86 -121 -71
-39 22 -79 151 -79 260 l0 58 30 -11 c28 -11 33 -9 74 32 37 37 44 40 50 25 4
-11 -5 -42 -25 -81 -29 -57 -31 -65 -19 -93 23 -56 80 -67 122 -22 14 15 40
52 57 82 32 58 69 99 136 149 47 35 58 38 51 14z m674 -219 c-5 -38 -10 -97
-10 -132 l0 -62 -84 56 -85 56 57 48 c31 26 73 61 92 78 19 17 36 29 38 28 1
-2 -2 -34 -8 -72z"/>
<path d="M12875 2309 c-46 -14 -126 -79 -162 -132 -71 -106 -113 -295 -120
-547 -7 -269 20 -366 135 -471 85 -77 121 -92 213 -87 141 8 232 76 341 255
29 46 55 86 59 89 12 7 47 -18 58 -42 7 -16 5 -38 -10 -84 -21 -69 -25 -179
-8 -229 21 -59 75 -68 112 -18 51 69 77 182 87 382 9 167 23 233 59 284 20 27
28 31 69 31 26 0 98 7 160 16 181 26 239 -1 249 -116 l6 -62 -31 16 c-66 34
-164 8 -218 -57 -16 -20 -47 -75 -69 -124 -36 -79 -40 -96 -39 -168 0 -120 30
-165 109 -165 79 0 119 88 113 251 -3 101 6 129 41 129 46 0 54 -71 21 -185
-12 -41 -20 -100 -20 -142 0 -61 4 -76 23 -99 48 -55 139 -22 145 52 9 130 55
518 67 563 9 35 25 66 45 85 l30 31 49 -18 c59 -21 100 -22 126 -3 31 21 121
30 170 16 64 -18 86 -46 92 -120 l6 -62 -31 16 c-63 32 -158 10 -214 -50 -14
-16 -46 -72 -70 -124 -39 -87 -43 -101 -42 -175 0 -120 30 -165 109 -165 79 0
119 88 113 251 -3 101 6 129 41 129 46 0 54 -71 21 -185 -12 -41 -20 -100 -20
-142 0 -61 4 -76 23 -99 48 -55 140 -22 145 52 9 127 55 517 67 563 7 29 24
64 36 77 l23 24 21 -26 c20 -26 21 -26 59 -10 21 9 49 16 63 16 13 0 33 5 44
10 13 8 25 7 40 -1 21 -11 22 -16 16 -128 -12 -224 -72 -478 -159 -671 -88
-194 -302 -356 -564 -426 -49 -13 -104 -18 -189 -18 -138 0 -195 16 -300 84
-64 41 -92 49 -113 28 -48 -48 58 -157 198 -204 75 -26 271 -26 390 -1 202 43
376 117 488 208 219 177 338 453 391 902 11 89 23 170 27 180 10 26 61 50 128
58 62 8 76 18 76 61 0 40 -10 57 -41 73 -49 26 -101 19 -159 -20 -58 -39 -47
-40 -119 12 -18 13 -56 19 -160 25 -123 6 -140 5 -177 -13 -22 -10 -51 -30
-64 -44 l-22 -24 -37 29 c-20 16 -53 36 -74 45 -56 23 -180 29 -257 13 -45 -9
-77 -11 -104 -5 -51 12 -101 -3 -153 -47 l-40 -35 -23 24 c-42 45 -116 68
-215 68 -231 0 -267 -3 -313 -27 l-46 -23 -44 33 c-53 41 -95 44 -144 11 l-34
-24 -18 25 c-42 55 -132 61 -197 13 l-28 -21 -30 30 c-38 39 -71 38 -149 0
-66 -34 -166 -132 -195 -192 -33 -70 -13 -128 45 -128 21 0 36 14 74 68 55 79
113 142 130 142 29 0 16 -40 -38 -124 -68 -104 -93 -177 -83 -244 13 -90 43
-122 113 -122 48 0 85 31 113 95 27 61 49 181 49 267 0 64 3 72 29 99 35 35
53 30 77 -19 16 -35 16 -42 1 -116 -32 -154 -161 -372 -243 -411 -95 -45 -174
-25 -231 59 -78 114 -97 274 -64 516 27 192 41 242 88 313 56 86 92 86 133 2
20 -42 25 -46 54 -43 29 3 31 5 34 50 7 113 -73 195 -163 167z m600 -579 c17
-19 17 -23 -3 -103 -12 -46 -25 -93 -29 -105 l-9 -23 -26 28 -27 28 18 88 c21
104 40 127 76 87z"/>
</g>
</svg>
